<svg xmlns="http://www.w3.org/2000/svg" viewBox="0 0 400 100">
  <defs>
    <linearGradient id="grad1" x1="0%" y1="0%" x2="100%" y2="0%">
      <stop offset="0%" style="stop-color:#3B82F6;stop-opacity:1" />
      <stop offset="50%" style="stop-color:#8B5CF6;stop-opacity:1" />
      <stop offset="100%" style="stop-color:#EC4899;stop-opacity:1" />
    </linearGradient>
  </defs>

  <!-- K -->
  <rect x="20" y="15" width="12" height="70" fill="url(#grad1)"/>
  <polygon points="32,50 70,15 58,15 32,40" fill="url(#grad1)"/>
  <polygon points="32,50 70,85 58,85 32,60" fill="url(#grad1)"/>

  <!-- B -->
  <rect x="85" y="15" width="12" height="70" fill="url(#grad1)"/>
  <rect x="97" y="15" width="25" height="12" fill="url(#grad1)"/>
  <rect x="97" y="44" width="25" height="12" fill="url(#grad1)"/>
  <rect x="97" y="73" width="25" height="12" fill="url(#grad1)"/>
  <rect x="122" y="27" width="12" height="17" fill="url(#grad1)"/>
  <rect x="122" y="56" width="12" height="17" fill="url(#grad1)"/>

  <!-- O -->
  <rect x="150" y="15" width="12" height="70" fill="url(#grad1)"/>
  <rect x="200" y="15" width="12" height="70" fill="url(#grad1)"/>
  <rect x="162" y="15" width="38" height="12" fill="url(#grad1)"/>
  <rect x="162" y="73" width="38" height="12" fill="url(#grad1)"/>

  <!-- X -->
  <polygon points="230,15 245,15 275,50 245,85 230,85 260,50" fill="url(#grad1)"/>
  <polygon points="300,15 285,15 255,50 285,85 300,85 270,50" fill="url(#grad1)"/>
</svg>
